<svg xmlns="http://www.w3.org/2000/svg" fill="none" viewBox="0 0 2000 2000">
  <rect width="2000" height="2000" fill="#000" rx="500"/>
  <path fill="#fff" d="M1000 850c33.14 0 60 26.863 60 60v30h30c33.14 0 60 26.863 60 60 0 33.14-26.86 60-60 60h-30v30c0 33.14-26.86 60-60 60-33.137 0-60-26.86-60-60v-30h-30c-33.137 0-60-26.86-60-60 0-33.137 26.863-60 60-60h30v-30c0-33.137 26.863-60 60-60Z"/>
  <path fill="#fff" d="M1000 302c33.14 0 60 26.863 60 60v238h76V462c0-33.137 26.86-60 60-60s60 26.863 60 60v138h97c134.74 0 244.29 107.894 246.95 242H1738c33.14 0 60 26.863 60 60s-26.86 60-60 60h-138v76h138c33.14 0 60 26.86 60 60s-26.86 60-60 60h-138.05c-2.66 134.11-112.21 242-246.95 242h-97v138c0 33.14-26.86 60-60 60s-60-26.86-60-60v-138h-76v238c0 33.14-26.86 60-60 60-33.137 0-60-26.86-60-60v-238h-76v138c0 33.14-26.863 60-60 60s-60-26.86-60-60v-138h-98.598c-134.011-.85-242.7-108.42-245.352-242H262c-33.137 0-60-26.86-60-60s26.863-60 60-60h138v-76H262c-33.137 0-60-26.863-60-60s26.863-60 60-60h138.05c2.652-133.576 111.341-241.146 245.352-241.995L647 600h97V462c0-33.137 26.863-60 60-60s60 26.863 60 60v138h76V362c0-33.137 26.863-60 60-60ZM647 720c-69.592 0-126.11 55.975-126.989 125.358L520 847v306c0 70.14 56.86 127 127 127h706c70.14 0 127-56.86 127-127V847c0-70.14-56.86-127-127-127H647Z"/>
</svg>
